<svg width="20" height="26" viewBox="0 0 20 26" fill="none" xmlns="http://www.w3.org/2000/svg">
<path fill-rule="evenodd" clip-rule="evenodd" d="M17.0039 15.7411C18.35 14.1802 19.1622 12.1581 19.1622 9.94916C19.1622 5.00667 15.0964 1 10.0811 1C5.06574 1 1 5.00667 1 9.94916C1 12.1581 1.81214 14.1802 3.15823 15.7411L10.0811 25L17.0039 15.7411Z" fill="black"/>
<path d="M17.0039 15.7411L16.6454 15.432L16.6347 15.4445L16.6248 15.4577L17.0039 15.7411ZM3.15823 15.7411L3.53735 15.4577L3.52748 15.4445L3.51672 15.432L3.15823 15.7411ZM10.0811 25L9.70196 25.2835L10.0811 25.7905L10.4602 25.2835L10.0811 25ZM18.6888 9.94916C18.6888 12.0397 17.9207 13.9531 16.6454 15.432L17.3624 16.0503C18.7793 14.4072 19.6355 12.2766 19.6355 9.94916H18.6888ZM10.0811 1.47339C14.8415 1.47339 18.6888 5.27462 18.6888 9.94916H19.6355C19.6355 4.73872 15.3513 0.526615 10.0811 0.526615V1.47339ZM1.47339 9.94916C1.47339 5.27462 5.32063 1.47339 10.0811 1.47339V0.526615C4.81085 0.526615 0.526615 4.73872 0.526615 9.94916H1.47339ZM3.51672 15.432C2.24144 13.9531 1.47339 12.0397 1.47339 9.94916H0.526615C0.526615 12.2766 1.38284 14.4072 2.79973 16.0503L3.51672 15.432ZM10.4602 24.7165L3.53735 15.4577L2.7791 16.0246L9.70196 25.2835L10.4602 24.7165ZM16.6248 15.4577L9.70196 24.7165L10.4602 25.2835L17.3831 16.0246L16.6248 15.4577Z" fill="white"/>
<ellipse cx="10.081" cy="9.94916" rx="2.47665" ry="2.44067" fill="white"/>
</svg>
